<?xml version="1.0" encoding="utf-8"?>
<!-- Generator: Adobe Illustrator 25.1.0, SVG Export Plug-In . SVG Version: 6.00 Build 0)  -->
<svg version="1.1" id="Layer_1" xmlns="http://www.w3.org/2000/svg" xmlns:xlink="http://www.w3.org/1999/xlink" x="0px" y="0px"
	 viewBox="0 0 550 500" style="enable-background:new 0 0 550 500;" xml:space="preserve">
<style type="text/css">
	.st0{fill:#77B833;}
	.st1{fill:url(#path15_1_);}
	.st2{fill:#575757;}
	.st3{fill:#1C3543;}
	.st4{fill:#96B03D;}
	.st5{fill:#FFFFFF;}
	.st6{font-family:'Calibri';}
	.st7{font-size:18px;}
	.st8{fill:#B4D380;}
	.st9{fill:#E6E9ED;}
	.st10{fill:#838F9A;}
	.st11{fill:#FDD870;}
	.st12{fill:#FDC72D;}
	.st13{fill:#020203;}
</style>
<g id="g1473" transform="matrix(2.5127833,0,0,2.5127833,-489.83979,-236.26281)">
	<path id="path13" class="st0" d="M326.6,206.2c0,14.6-17.9,26.3-21.8,28.7c-0.5,0.3-1,0.3-1.5,0c-3.9-2.4-21.8-14.1-21.8-28.7
		v-17.5c0-0.8,0.6-1.4,1.4-1.4c13.9-0.4,10.7-6.4,21.2-6.4s7.2,6,21.2,6.4c0.8,0,1.4,0.6,1.4,1.4L326.6,206.2z"/>
	
		<linearGradient id="path15_1_" gradientUnits="userSpaceOnUse" x1="298.8577" y1="244.7633" x2="298.8577" y2="229.1733" gradientTransform="matrix(127.0323 0 0 127.0323 -37660.4648 -30859.9805)">
		<stop  offset="0" style="stop-color:#5F9631"/>
		<stop  offset="0.321" style="stop-color:#649D30"/>
		<stop  offset="0.794" style="stop-color:#6FB12D"/>
		<stop  offset="0.999" style="stop-color:#77B833"/>
	</linearGradient>
	<path id="path15" class="st1" d="M324.8,206.4c0,13.4-16.4,24.1-20,26.3c-0.4,0.3-0.9,0.3-1.4,0c-3.6-2.2-20-12.9-20-26.3v-16.1
		c0-0.7,0.6-1.3,1.3-1.3l0,0c12.8-0.3,9.9-5.9,19.4-5.9s6.6,5.5,19.4,5.9c0.7,0,1.3,0.6,1.3,1.3l0,0L324.8,206.4z"/>
</g>
<path id="path18" class="st2" d="M522.5,406.1c0,24.8-19.7,47.6-47.3,47.6h-183l0.9-68.4c55.2-8.4,93.2-60,84.8-115.2
	c-1.1-7.1-2.9-14-5.4-20.7l50.7-29.1l92.9,162.1C520.3,389.7,522.5,397.8,522.5,406.1L522.5,406.1z"/>
<path id="path20" class="st3" d="M408.6,194.8L358.3,224c-33.9-44.4-97.3-52.9-141.7-19c-7.5,5.7-14.1,12.4-19.7,20l-50.8-28
	l94.7-165.3c14.3-25,48-28.1,67.1-9.4c2.8,2.8,5.3,5.9,7.2,9.4L408.6,194.8z"/>
<path id="path22" class="st4" d="M263.7,385.5l-0.6,68.3H80.7c-12.4,0.1-24.4-4.9-33.2-13.7c-9-9-14.1-21.2-14.1-33.9
	c0-8.3,2.2-16.5,6.4-23.7l91.7-160l51.5,28.1c-19.2,52.5,7.8,110.6,60.2,129.8C249.9,382.8,256.8,384.5,263.7,385.5z"/>
<g>
	<text transform="matrix(1 0 0 1 209.1811 159.1725)" class="st5 st6 st7">C</text>
	<text transform="matrix(1 0 0 1 218.5811 159.1725)" class="st5 st6 st7">ONFIDENTIALITY</text>
	<g>
		<path id="path1125" class="st8" d="M274.5,125.6c9.3,0,17.2-6.1,19.8-14.5h8.6c-2.9,13.1-14.5,22.8-28.4,22.8s-25.5-9.8-28.4-22.8
			h8.6C257.3,119.5,265.2,125.6,274.5,125.6L274.5,125.6z"/>
		<path id="path1127" class="st8" d="M274.5,84.1c-9.3,0-17.2,6.1-19.8,14.5h-8.6c2.9-13.1,14.5-22.8,28.4-22.8s25.5,9.8,28.4,22.8
			h-8.6C291.6,90.2,283.8,84.1,274.5,84.1z"/>
		<path id="path1129" class="st9" d="M305.6,100.7v8.3c0,1.1-0.9,2.1-2.1,2.1h-19.1c0.3-1.2,0.4-2.3,0.4-3.6v-3.7
			c0,0-0.7-0.6-2.1-1.2v-4h20.8C304.7,98.6,305.6,99.5,305.6,100.7z"/>
		<path id="path1131" class="st9" d="M264.1,103.8v3.7c0,1.2,0.2,2.4,0.4,3.6h-19.1c-1.1,0-2.1-0.9-2.1-2.1v-8.3
			c0-1.1,0.9-2.1,2.1-2.1h20.8v4C264.8,103.2,264.1,103.8,264.1,103.8z"/>
		<path id="path1133" class="st10" d="M282.8,98.6v4c-1-0.5-2.5-1.1-4.2-1.4v-4.6c0-2.3-1.9-4.2-4.2-4.2c-2.3,0-4.2,1.9-4.2,4.2v4.6
			c-1.7,0.4-3.1,0.9-4.2,1.4v-6.1c0-2.3,0.9-4.4,2.4-5.9s3.6-2.4,5.9-2.4c4.6,0,8.3,3.7,8.3,8.3v2.1H282.8z"/>
		<path id="path1135" class="st11" d="M284.9,103.8v3.7c0,1.2-0.2,2.4-0.4,3.6c-1.2,4.9-4.9,8.9-9.9,10.4c-5-1.5-8.7-5.5-9.9-10.4
			c-0.3-1.2-0.4-2.3-0.4-3.6v-3.7c0,0,0.7-0.6,2.1-1.2c1-0.5,2.5-1.1,4.2-1.4c1.2-0.3,2.6-0.5,4.2-0.5s2.9,0.2,4.2,0.5
			c1.7,0.4,3.1,0.9,4.2,1.4C284.1,103.2,284.9,103.8,284.9,103.8L284.9,103.8z"/>
		<path id="path1137" class="st12" d="M274.5,103.8c2.3,0,4.2,1.9,4.2,4.2c0,1.5-0.8,2.9-2.1,3.6v4.7h-4.2v-4.7
			c-1.2-0.7-2.1-2-2.1-3.6C270.3,105.6,272.2,103.8,274.5,103.8L274.5,103.8z"/>
		<path id="path1139" class="st5" d="M303.7,97.6c-3.3-13.3-15.4-22.9-29.2-22.9s-25.9,9.6-29.2,22.9c-1.7,0.1-3,1.4-3,3.1v8.3
			c0,1.7,1.3,3,3,3.1c3.3,13.3,15.4,22.9,29.2,22.9s25.9-9.6,29.2-22.9c1.7-0.1,3-1.4,3-3.1v-8.3C306.7,99,305.3,97.6,303.7,97.6z
			 M274.5,76.8c12.6,0,23.8,8.7,27,20.8H295c-3.1-8.7-11.2-14.5-20.5-14.5S257,88.9,254,97.6h-6.5C250.7,85.5,261.8,76.8,274.5,76.8
			L274.5,76.8z M285.2,112.1h7.6c-3,7.5-10.2,12.5-18.3,12.5s-15.4-5-18.3-12.5h7.6c1.5,4.9,5.3,8.8,10.4,10.3l0.3,0.1l0.3-0.1
			C279.9,120.9,283.7,117,285.2,112.1L285.2,112.1z M274.5,101.7c4.7,0,8.2,1.9,9.3,2.6v3.1c0,5.9-3.7,11.1-9.3,12.9
			c-5.6-1.8-9.3-6.9-9.3-12.9v-3.1C266.3,103.6,269.8,101.7,274.5,101.7z M277.6,99.9c-1-0.2-2-0.3-3.1-0.3s-2.1,0.1-3.1,0.3v-3.4
			c0-1.7,1.4-3.1,3.1-3.1s3.1,1.4,3.1,3.1V99.9z M279.7,100.3v-3.8c0-2.9-2.3-5.2-5.2-5.2c-2.9,0-5.2,2.3-5.2,5.2v3.8
			c-0.8,0.2-1.5,0.4-2.1,0.7v-4.5c0-4,3.3-7.3,7.3-7.3s7.3,3.3,7.3,7.3v4.5C281.1,100.8,280.4,100.5,279.7,100.3L279.7,100.3z
			 M274.5,87.2c-5.2,0-9.3,4.2-9.3,9.3v1h-9c3-7.5,10.2-12.5,18.3-12.5s15.4,5,18.3,12.5h-9v-1C283.8,91.4,279.6,87.2,274.5,87.2z
			 M244.4,109v-8.3c0-0.6,0.5-1,1-1h19.7v2.3c-1,0.5-1.6,1-1.7,1l-0.4,0.3v4.2c0,0.9,0.1,1.7,0.2,2.5h-17.9
			C244.8,110,244.4,109.6,244.4,109L244.4,109z M274.5,132.9c-12.6,0-23.8-8.7-27-20.8h6.5c3.1,8.7,11.2,14.5,20.5,14.5
			s17.5-5.8,20.5-14.5h6.5C298.3,124.2,287.1,132.9,274.5,132.9z M304.6,109c0,0.6-0.5,1-1,1h-17.9c0.1-0.8,0.2-1.7,0.2-2.5v-4.2
			l-0.4-0.3c-0.1,0-0.7-0.5-1.7-1v-2.3h19.7c0.6,0,1,0.5,1,1L304.6,109L304.6,109z"/>
		<path id="path1141" class="st13" d="M298.4,101.7h2.1v2.1h-2.1V101.7z"/>
		<path id="path1143" class="st13" d="M298.4,105.9h2.1v2.1h-2.1V105.9z"/>
		<path id="path1145" class="st13" d="M300.4,103.8h2.1v2.1h-2.1V103.8z"/>
		<path id="path1147" class="st13" d="M296.3,103.8h2.1v2.1h-2.1V103.8z"/>
		<path id="path1149" class="st13" d="M290.1,101.7h2.1v2.1h-2.1V101.7z"/>
		<path id="path1151" class="st13" d="M290.1,105.9h2.1v2.1h-2.1V105.9z"/>
		<path id="path1153" class="st13" d="M292.1,103.8h2.1v2.1h-2.1V103.8z"/>
		<path id="path1155" class="st13" d="M288,103.8h2.1v2.1H288V103.8z"/>
		<path id="path1157" class="st13" d="M256.8,101.7h2.1v2.1h-2.1V101.7z"/>
		<path id="path1159" class="st13" d="M256.8,105.9h2.1v2.1h-2.1V105.9z"/>
		<path id="path1161" class="st13" d="M258.9,103.8h2.1v2.1h-2.1V103.8z"/>
		<path id="path1163" class="st13" d="M254.7,103.8h2.1v2.1h-2.1L254.7,103.8L254.7,103.8z"/>
		<path id="path1165" class="st13" d="M248.5,101.7h2.1v2.1h-2.1V101.7z"/>
		<path id="path1167" class="st13" d="M248.5,105.9h2.1v2.1h-2.1V105.9z"/>
		<path id="path1169" class="st13" d="M250.6,103.8h2.1v2.1h-2.1V103.8z"/>
		<path id="path1171" class="st13" d="M246.4,103.8h2.1v2.1h-2.1V103.8z"/>
		<path id="path1173" class="st13" d="M275.5,79.9c0,0.6-0.5,1-1,1s-1-0.5-1-1s0.5-1,1-1C275.1,78.9,275.5,79.3,275.5,79.9z"/>
		<path id="path1175" class="st13" d="M257.6,87.9c0.4-0.4,0.4-1.1,0-1.5s-1.1-0.4-1.5,0s-0.4,1.1,0,1.5S257.2,88.3,257.6,87.9z"/>
		<path id="path1177" class="st13" d="M256.1,121.7c-0.4,0.4-0.4,1.1,0,1.5s1.1,0.4,1.5,0s0.4-1.1,0-1.5
			C257.2,121.3,256.5,121.3,256.1,121.7z"/>
		<path id="path1179" class="st13" d="M275.5,129.7c0,0.6-0.5,1-1,1s-1-0.5-1-1s0.5-1,1-1C275.1,128.7,275.5,129.2,275.5,129.7z"/>
		<path id="path1181" class="st13" d="M291.4,121.7c-0.4,0.4-0.4,1.1,0,1.5s1.1,0.4,1.5,0s0.4-1.1,0-1.5
			C292.4,121.3,291.8,121.3,291.4,121.7z"/>
		<path id="path1183" class="st13" d="M292.8,87.9c0.4-0.4,0.4-1.1,0-1.5s-1.1-0.4-1.5,0s-0.4,1.1,0,1.5
			C291.8,88.3,292.4,88.3,292.8,87.9z"/>
		<path id="path1185" class="st13" d="M271.4,112.1v5.2h6.2v-5.2c1.3-1,2.1-2.5,2.1-4.1c0-2.9-2.3-5.2-5.2-5.2
			c-2.9,0-5.2,2.3-5.2,5.2C269.3,109.6,270.1,111.1,271.4,112.1z M274.5,104.8c1.7,0,3.1,1.4,3.1,3.1c0,1.1-0.6,2.1-1.6,2.7
			l-0.5,0.3v4.3h-2.1v-4.3l-0.5-0.3c-1-0.6-1.6-1.6-1.6-2.7C271.4,106.2,272.8,104.8,274.5,104.8L274.5,104.8z"/>
	</g>
</g>
<g>
	<text transform="matrix(1 0 0 1 84.7654 423.6584)" class="st5 st6 st7">A</text>
	<text transform="matrix(1 0 0 1 94.7454 423.6584)" class="st5 st6 st7">V</text>
	<text transform="matrix(1 0 0 1 104.4354 423.6584)" class="st5 st6 st7">AILABILITY</text>
	<g id="XMLID_1031_" transform="matrix(0.1329797,0,0,0.1329797,151.95494,291.00956)">
		<g id="XMLID_971_">
			<g id="XMLID_977_">
				<path id="XMLID_1030_" class="st5" d="M59.4,400.3h15.8c5.5,0,10-4.5,10-10c0-5.5-4.5-10-10-10h-38c-5.5,0-10,4.5-10,10v38
					c0,5.5,4.5,10,10,10s10-4.5,10-10v-11C77.5,457.9,94,507.2,94,558.5c0,130.2-105.9,236.2-236.1,236.2s-236.2-105.9-236.2-236.2
					s105.9-236.2,236.2-236.2c9.6,0,19.3,0.6,28.8,1.7c5.5,0.7,10.5-3.2,11.1-8.7c0.7-5.5-3.2-10.5-8.7-11.1
					c-10.3-1.2-20.8-1.9-31.2-1.9c-68.4,0-132.8,26.6-181.1,75c-48.4,48.4-75,112.7-75,181.1s26.6,132.8,75,181.1
					c48.4,48.4,112.7,75,181.1,75S-9.4,788,39,739.6s75-112.7,75-181.1C114,500.7,94.7,445.3,59.4,400.3z"/>
				<path id="XMLID_1029_" class="st5" d="M-289.8,453.3c-4.7-3-10.8-1.6-13.8,3.1c-22.8,36.1-32.9,79.4-28.5,122.1
					c4.5,43.3,24,84.2,54.9,115c37.2,37.2,86.1,55.9,135.1,55.9S-44.3,730.8-7,693.5C67.5,619,67.5,497.9-7,423.4
					c-30.8-30.8-71.6-50.3-114.8-54.9c-42.6-4.5-85.9,5.5-122,28.2c-4.7,2.9-6.1,9.1-3.1,13.8c2.9,4.7,9.1,6.1,13.8,3.1
					c67.9-42.8,155.1-33,212,23.9c66.7,66.7,66.7,175.2,0,241.8c-66.7,66.7-175.2,66.7-241.8,0c-56.1-56.1-66-145.4-23.7-212.3
					C-283.8,462.5-285.2,456.3-289.8,453.3z"/>
				<path id="XMLID_1028_" class="st5" d="M-12.1,568.6H0.2c5.5,0,10-4.5,10-10s-4.5-10-10-10h-12.3c-5.5,0-10,4.5-10,10
					C-22.1,564.2-17.7,568.6-12.1,568.6z"/>
				<path id="XMLID_1004_" class="st5" d="M-294.5,558.3c0,5.5,4.5,10,10,10h12.3c5.5,0,10-4.5,10-10s-4.5-10-10-10h-12.3
					C-290,548.3-294.5,552.8-294.5,558.3z"/>
				<path id="XMLID_1001_" class="st5" d="M-132,428.5v-12.3c0-5.5-4.5-10-10-10c-5.5,0-10,4.5-10,10v12.3c0,5.5,4.5,10,10,10
					C-136.5,438.5-132,434-132,428.5z"/>
				<path id="XMLID_1415_" class="st5" d="M-152.3,688.5v12.3c0,5.5,4.5,10,10,10c5.5,0,10-4.5,10-10v-12.3c0-5.5-4.5-10-10-10
					C-147.8,678.5-152.3,683-152.3,688.5z"/>
				<path id="XMLID_996_" class="st5" d="M-192.3,494.2c-3.9-3.9-10.2-3.9-14.1,0s-3.9,10.2,0,14.1l33.9,33.9
					c-2.6,4.8-4.1,10.4-4.1,16.2c0,19,15.5,34.4,34.4,34.4s34.4-15.5,34.4-34.4c0-5.9-1.5-11.4-4.1-16.2l68.4-68.4
					c3.9-3.9,3.9-10.2,0-14.1c-3.9-3.9-10.2-3.9-14.1,0l-68.4,68.4c-4.8-2.6-10.4-4.1-16.2-4.1c-5.8,0-11.4,1.5-16.2,4.1
					L-192.3,494.2z M-127.7,558.5c0,8-6.5,14.5-14.4,14.5c-8,0-14.4-6.5-14.4-14.5c0-8,6.5-14.4,14.4-14.4
					C-134.2,544-127.7,550.5-127.7,558.5z"/>
				<path id="XMLID_980_" class="st5" d="M-263.1,437.6c1.9-1.9,2.9-4.4,2.9-7.1c0-2.6-1.1-5.2-2.9-7.1c-1.9-1.9-4.4-2.9-7.1-2.9
					c-2.6,0-5.2,1.1-7.1,2.9c-1.9,1.9-2.9,4.4-2.9,7.1c0,2.6,1.1,5.2,2.9,7.1c1.9,1.9,4.4,2.9,7.1,2.9
					C-267.5,440.5-264.9,439.4-263.1,437.6z"/>
				<path id="XMLID_979_" class="st5" d="M-72.9,332.2c2.6,0,5.2-1.1,7.1-2.9c1.9-1.9,2.9-4.4,2.9-7.1c0-2.6-1.1-5.2-2.9-7.1
					c-1.9-1.9-4.4-2.9-7.1-2.9c-2.6,0-5.2,1.1-7.1,2.9c-1.9,1.9-2.9,4.4-2.9,7.1c0,2.6,1.1,5.2,2.9,7.1
					C-78.1,331.1-75.5,332.2-72.9,332.2z"/>
			</g>
		</g>
	</g>
</g>
<g>
	<text transform="matrix(1 0 0 1 380.7298 424.7381)" class="st5 st6 st7">INT</text>
	<text transform="matrix(1 0 0 1 406.2998 424.7381)" class="st5 st6 st7">E</text>
	<text transform="matrix(1 0 0 1 414.8097 424.7381)" class="st5 st6 st7">GRITY</text>
	<g id="g7173" transform="matrix(0.12946973,0,0,0.12946973,441.83149,288.46076)">
		<path id="path7126" class="st5" d="M-72.5,666.1l-18.4-18.4c3.1-5.5,5.6-11.2,7.5-17.1h27c4.1,0,7.5-3.4,7.5-7.5v-43.4
			c0-4.1-3.4-7.5-7.5-7.5h-27c-1.9-5.9-4.4-11.7-7.5-17.1l18.4-18.4c2.9-2.9,2.9-7.7,0-10.6l-28.1-28.1c-1.4-1.4-3.3-2.2-5.3-2.2
			c-2,0-3.9,0.8-5.3,2.2l-19.1,19.1c-4.5-2.3-9.2-4.3-14.1-5.8v-27c0-4.1-3.4-7.5-7.5-7.5h-39.9c-4.1,0-7.5,3.4-7.5,7.5v26
			c-6,1.7-11.8,4-17.4,6.8l-19.1-19.1c-1.4-1.4-3.3-2.2-5.3-2.2s-3.9,0.8-5.3,2.2l-28.2,28.2c-2.9,2.9-2.9,7.7,0,10.6l18.4,18.4
			c-3.1,5.5-5.6,11.2-7.5,17.1h-27c-4.1,0-7.5,3.4-7.5,7.5v43.4c0,4.1,3.4,7.5,7.5,7.5h27c1.9,5.9,4.4,11.7,7.5,17.1l-18.4,18.4
			c-2.9,2.9-2.9,7.7,0,10.6l28.2,28.2c2.9,2.9,7.7,2.9,10.6,0l19.1-19.1c5.6,2.9,11.4,5.1,17.4,6.8v26c0,4.1,3.4,7.5,7.5,7.5h39.9
			c4.1,0,7.5-3.4,7.5-7.5v-27c4.8-1.6,9.5-3.5,14.1-5.8l19.1,19.1c2.9,2.9,7.7,2.9,10.6,0l28.2-28.2
			C-69.5,673.8-69.5,669.1-72.5,666.1z M-105.9,689l-17.8-17.8c-2.4-2.4-6.2-2.9-9.1-1.1c-6.5,3.9-13.6,6.8-20.9,8.7
			c-3.3,0.8-5.6,3.8-5.6,7.3v25.1h-24.9v-24.3c0-3.5-2.5-6.6-5.9-7.3c-8.4-1.8-16.5-5-23.9-9.4c-2.9-1.8-6.7-1.3-9.1,1.1l-17.8,17.8
			l-17.6-17.6l17.2-17.2c2.5-2.5,2.9-6.4,1-9.4c-4.7-7.3-8.2-15.2-10.3-23.6c-0.8-3.3-3.8-5.6-7.3-5.6h-25.2v-28.4h25.1
			c3.4,0,6.4-2.3,7.3-5.6c2.1-8.4,5.6-16.3,10.3-23.6c1.9-3,1.5-6.9-1-9.4l-17.2-17.2l17.6-17.6l17.8,17.8c2.4,2.4,6.2,2.9,9.1,1.1
			c7.4-4.4,15.5-7.6,23.9-9.4c3.5-0.7,5.9-3.8,5.9-7.3v-24.3h24.9v25.1c0,3.4,2.3,6.4,5.6,7.3c7.3,1.9,14.4,4.8,20.9,8.7
			c2.9,1.8,6.7,1.3,9.1-1.1L-106,514l17.6,17.6l-17.2,17.2c-2.5,2.5-2.9,6.4-1,9.4c4.7,7.3,8.2,15.2,10.3,23.6
			c0.8,3.3,3.8,5.6,7.3,5.6h25.1v28.4H-89c-3.4,0-6.4,2.3-7.3,5.6c-2.1,8.4-5.6,16.3-10.3,23.6c-1.9,3-1.5,6.9,1,9.4l17.2,17.2
			L-105.9,689z"/>
		<path id="path7128" class="st5" d="M-173.5,563.7c-1.9,0-3.9,0.1-5.7,0.4c-4.1,0.6-6.9,4.5-6.3,8.5c0.6,4.1,4.5,6.9,8.5,6.3
			c1.1-0.2,2.3-0.3,3.5-0.3c12.6,0,22.8,10.2,22.8,22.8s-10.2,22.8-22.8,22.8s-22.8-10.2-22.8-22.8c0-1.2,0.1-2.4,0.3-3.5
			c0.6-4.1-2.2-7.9-6.3-8.6c-4.1-0.6-7.9,2.2-8.6,6.3c-0.3,1.9-0.4,3.8-0.4,5.8c0,20.8,17,37.8,37.8,37.8s37.8-17,37.8-37.8
			C-135.7,580.6-152.6,563.7-173.5,563.7z"/>
		<path id="path7130" class="st5" d="M14.4,390.9c-12.5,0-22.7,10.2-22.7,22.7c0,12.5,10.2,22.7,22.7,22.7s22.7-10.2,22.7-22.7
			C37.1,401.1,26.9,390.9,14.4,390.9z M14.4,421.2c-4.2,0-7.7-3.4-7.7-7.7c0-4.2,3.4-7.7,7.7-7.7s7.7,3.4,7.7,7.7
			C22.1,417.8,18.6,421.2,14.4,421.2z"/>
		<path id="path7132" class="st5" d="M75,390.9H62.3c-5.2-11.1-14.1-20-25.2-25.2V353c0-4.1-3.4-7.5-7.5-7.5H-0.7
			c-4.1,0-7.5,3.4-7.5,7.5v12.7c-11.1,5.2-20,14.1-25.2,25.2h-12.7c-4.1,0-7.5,3.4-7.5,7.5v30.3c0,4.1,3.4,7.5,7.5,7.5h12.7
			c5.2,11.1,14.1,20,25.2,25.2v12.7c0,4.1,3.4,7.5,7.5,7.5h30.3c4.1,0,7.5-3.4,7.5-7.5v-12.7c11.1-5.2,20-14.1,25.2-25.2H75
			c4.1,0,7.5-3.4,7.5-7.5v-30.3C82.5,394.3,79.2,390.9,75,390.9z M67.5,421.2H57.3c-3.2,0-6,2-7.1,5c-3.8,10.7-12.4,19.3-23.1,23.1
			c-3,1.1-5,3.9-5,7.1v10.3H6.8v-10.3c0-3.2-2-6-5-7.1c-10.7-3.8-19.3-12.4-23.1-23.1c-1.1-3-3.9-5-7.1-5h-10.3v-15.3h10.3
			c3.2,0,6-2,7.1-5c3.8-10.7,12.4-19.3,23.1-23.1c3-1.1,5-3.9,5-7.1v-10.3h15.3v10.3c0,3.2,2,6,5,7.1c10.7,3.8,19.3,12.4,23.1,23.1
			c1.1,3,3.9,5,7.1,5h10.3L67.5,421.2L67.5,421.2z"/>
		<path id="path7134" class="st5" d="M37.1,789.4c0-12.5-10.2-22.7-22.7-22.7s-22.7,10.2-22.7,22.7C-8.2,801.9,1.9,812,14.4,812
			S37.1,801.9,37.1,789.4z M6.8,789.4c0-4.2,3.4-7.7,7.7-7.7s7.7,3.4,7.7,7.7c0,4.2-3.4,7.7-7.7,7.7S6.8,793.6,6.8,789.4z"/>
		<path id="path7136" class="st5" d="M75,766.7H62.3c-5.2-11.1-14.1-20-25.2-25.2v-12.7c0-4.1-3.4-7.5-7.5-7.5H-0.7
			c-4.1,0-7.5,3.4-7.5,7.5v13.3c-2,2.1-2.7,5.2-1.6,8.1c1.6,3.8,6,5.6,9.8,4.1c0.6-0.2,1.2-0.5,1.8-0.7c3-1.1,5-3.9,5-7.1v-10.3
			h15.3v10.3c0,3.2,2,6,5,7.1c10.7,3.8,19.3,12.4,23.1,23.1c1.1,3,3.9,5,7.1,5h10.3V797H57.3c-3.2,0-6,2-7.1,5
			c-3.8,10.7-12.4,19.3-23.1,23.1c-3,1.1-5,3.9-5,7.1v10.3H6.8v-10.3c0-3.2-2-6-5-7.1c-10.7-3.8-19.3-12.4-23.1-23.1
			c-1.1-3-3.9-5-7.1-5h-10.3v-15.3h10.3c3.2,0,6-2,7.1-5c0.2-0.6,0.5-1.3,0.7-1.9c1.6-3.8-0.2-8.2-4.1-9.8c-2.9-1.2-6.1-0.4-8.2,1.7
			h-13.3c-4.1,0-7.5,3.4-7.5,7.5v30.3c0,4.1,3.4,7.5,7.5,7.5h12.7c5.2,11.1,14.1,20,25.2,25.2V850c0,4.1,3.4,7.5,7.5,7.5h30.3
			c4.1,0,7.5-3.4,7.5-7.5v-12.7c11.1-5.2,20-14.1,25.2-25.2h12.7c4.1,0,7.5-3.4,7.5-7.5v-30.3C82.5,770.1,79.2,766.7,75,766.7z"/>
		<path id="path7138" class="st5" d="M-338.7,413.6c0-12.5-10.2-22.7-22.7-22.7s-22.7,10.2-22.7,22.7c0,12.5,10.2,22.7,22.7,22.7
			C-348.9,436.2-338.7,426.1-338.7,413.6z M-369,413.6c0-4.2,3.4-7.7,7.7-7.7s7.7,3.4,7.7,7.7c0,4.3-3.4,7.7-7.7,7.7
			S-369,417.8-369,413.6z"/>
		<path id="path7140" class="st5" d="M-422,436.2h12.7c5.2,11.1,14.1,20,25.2,25.2v12.7c0,4.1,3.4,7.5,7.5,7.5h30.3
			c4.1,0,7.5-3.4,7.5-7.5v-12.7c11.1-5.2,20-14.1,25.2-25.2h12.7c4.1,0,7.5-3.4,7.5-7.5v-30.3c0-4.1-3.4-7.5-7.5-7.5h-12.7
			c-5.2-11.1-14.1-20-25.2-25.2V353c0-4.1-3.4-7.5-7.5-7.5h-30.3c-4.1,0-7.5,3.4-7.5,7.5v13.3c-2,2.1-2.7,5.2-1.6,8.1
			c1.6,3.8,6,5.6,9.8,4.1c0.6-0.2,1.2-0.5,1.8-0.7c3-1.1,5-3.9,5-7.1v-10.3h15.3v10.3c0,3.2,2,6,5,7.1c10.7,3.8,19.3,12.4,23.1,23.1
			c1.1,3,3.9,5,7.1,5h10.3v15.3h-10.3c-3.2,0-6,2-7.1,5c-3.8,10.7-12.4,19.3-23.1,23.1c-3,1.1-5,3.9-5,7.1v10.3h-15.3v-10.3
			c0-3.2-2-6-5-7.1c-10.7-3.8-19.3-12.4-23.1-23.1c-1.1-3-3.9-5-7.1-5h-10.3v-15.3h10.3c3.2,0,6-2,7.1-5c0.2-0.6,0.5-1.2,0.7-1.9
			c1.6-3.8-0.2-8.2-4-9.8c-2.9-1.2-6.1-0.5-8.2,1.7H-422c-4.1,0-7.5,3.4-7.5,7.5v30.3C-429.5,432.9-426.1,436.2-422,436.2z"/>
		<path id="path7142" class="st5" d="M-300.8,766.7h-12.7c-5.2-11.1-14.1-20-25.2-25.2v-12.7c0-4.1-3.4-7.5-7.5-7.5h-30.3
			c-4.1,0-7.5,3.4-7.5,7.5v12.7c-11.1,5.2-20,14.1-25.2,25.2h-12.7c-4.1,0-7.5,3.4-7.5,7.5v30.3c0,4.1,3.4,7.5,7.5,7.5h12.7
			c5.2,11.1,14.1,20,25.2,25.2V850c0,4.1,3.4,7.5,7.5,7.5h30.3c4.1,0,7.5-3.4,7.5-7.5v-12.7c11.1-5.2,20-14.1,25.2-25.2h12.7
			c4.1,0,7.5-3.4,7.5-7.5v-30.3C-293.3,770.1-296.6,766.7-300.8,766.7z M-308.3,797h-10.3c-3.2,0-6,2-7.1,5
			c-3.8,10.7-12.4,19.3-23.1,23.1c-3,1.1-5,3.9-5,7.1v10.3h-15.3v-10.3c0-3.2-2-6-5-7.1c-10.7-3.8-19.3-12.4-23.1-23.1
			c-1.1-3-3.9-5-7.1-5h-10.3v-15.3h10.3c3.2,0,6-2,7.1-5c3.8-10.7,12.4-19.3,23.1-23.1c3-1.1,5-3.9,5-7.1v-10.3h15.3v10.3
			c0,3.2,2,6,5,7.1c10.7,3.8,19.3,12.4,23.1,23.1c1.1,3,3.9,5,7.1,5h10.3V797z"/>
		<path id="path7144" class="st5" d="M-361.4,766.7c-12.5,0-22.7,10.2-22.7,22.7c0,12.5,10.2,22.7,22.7,22.7s22.7-10.2,22.7-22.7
			C-338.7,776.9-348.9,766.7-361.4,766.7z M-361.4,797c-4.2,0-7.7-3.4-7.7-7.7c0-4.2,3.4-7.7,7.7-7.7s7.7,3.4,7.7,7.7
			C-353.7,793.6-357.1,797-361.4,797z"/>
		<path id="path7146" class="st5" d="M-305.5,458.8c-2.9-2.9-7.7-2.9-10.6,0c-2.9,2.9-2.9,7.7,0,10.6l21.5,21.5h-6.1
			c-4.1,0-7.5,3.4-7.5,7.5s3.4,7.5,7.5,7.5h24.2c4.1,0,7.5-3.4,7.5-7.5v-24.2c0-4.1-3.4-7.5-7.5-7.5c-4.1,0-7.5,3.4-7.5,7.5v6.1
			L-305.5,458.8z"/>
		<path id="path7148" class="st5" d="M-77.9,499.2c0.4,3.8,3.7,6.8,7.5,6.8h24.2c4.1,0,7.5-3.4,7.5-7.5s-3.4-7.5-7.5-7.5h-6.1
			l21.5-21.5c2.9-2.9,2.9-7.7,0-10.6c-2.9-2.9-7.7-2.9-10.6,0l-21.5,21.5v-6.1c0-4.1-3.4-7.5-7.5-7.5s-7.5,3.4-7.5,7.5v24.2
			C-77.9,498.7-77.9,498.9-77.9,499.2z"/>
		<path id="path7150" class="st5" d="M-269,701.8c-0.4-3.8-3.7-6.8-7.5-6.8h-24.2c-4.1,0-7.5,3.4-7.5,7.5s3.4,7.5,7.5,7.5h6.1
			l-21.5,21.5c-2.9,2.9-2.9,7.7,0,10.6c1.5,1.5,3.4,2.2,5.3,2.2s3.8-0.7,5.3-2.2l21.5-21.5v6.1c0,4.1,3.4,7.5,7.5,7.5
			c4.1,0,7.5-3.4,7.5-7.5v-24.2C-269,702.3-269,702-269,701.8z"/>
		<path id="path7152" class="st5" d="M-41.4,742.2c1.5,1.5,3.4,2.2,5.3,2.2s3.8-0.7,5.3-2.2c2.9-2.9,2.9-7.7,0-10.6L-52.3,710h6.1
			c4.1,0,7.5-3.4,7.5-7.5s-3.4-7.5-7.5-7.5h-24.2c-4.1,0-7.5,3.4-7.5,7.5v24.2c0,4.1,3.4,7.5,7.5,7.5s7.5-3.4,7.5-7.5v-6.1
			L-41.4,742.2z"/>
	</g>
</g>
<g>
	<path class="st5" d="M257.6,271.4c0,0.2,0,0.4,0,0.6s0,0.3-0.1,0.4s-0.1,0.2-0.1,0.3c0,0.1-0.1,0.2-0.2,0.3
		c-0.1,0.1-0.3,0.2-0.6,0.4c-0.3,0.2-0.7,0.3-1.1,0.5s-0.9,0.3-1.5,0.4s-1.1,0.2-1.8,0.2c-1.3,0-2.4-0.2-3.4-0.6s-1.9-1-2.6-1.7
		s-1.3-1.7-1.6-2.9c-0.4-1.2-0.6-2.5-0.6-4c0-1.6,0.2-2.9,0.6-4.1c0.4-1.2,1-2.2,1.7-3s1.6-1.4,2.7-1.9c1-0.4,2.2-0.6,3.4-0.6
		c0.5,0,1,0,1.5,0.1s0.9,0.2,1.3,0.3c0.4,0.1,0.8,0.3,1.1,0.5c0.3,0.2,0.5,0.3,0.7,0.5c0.1,0.1,0.2,0.2,0.3,0.3
		c0,0.1,0.1,0.2,0.1,0.3c0,0.1,0,0.3,0.1,0.5c0,0.2,0,0.4,0,0.7c0,0.3,0,0.5,0,0.7s-0.1,0.4-0.1,0.5s-0.1,0.2-0.2,0.3
		c-0.1,0.1-0.1,0.1-0.2,0.1s-0.3-0.1-0.5-0.2c-0.2-0.2-0.5-0.3-0.8-0.6c-0.3-0.2-0.8-0.4-1.2-0.6c-0.5-0.2-1-0.2-1.7-0.2
		s-1.4,0.1-1.9,0.4c-0.6,0.3-1.1,0.7-1.5,1.3c-0.4,0.6-0.7,1.2-0.9,2s-0.3,1.7-0.3,2.6c0,1.1,0.1,2,0.3,2.8s0.5,1.4,0.9,1.9
		s0.9,0.9,1.5,1.1s1.2,0.4,2,0.4c0.7,0,1.2-0.1,1.7-0.2c0.5-0.2,0.9-0.3,1.2-0.5s0.6-0.4,0.8-0.5c0.2-0.2,0.4-0.2,0.5-0.2
		s0.2,0,0.2,0.1c0.1,0,0.1,0.1,0.1,0.2s0.1,0.3,0.1,0.5C257.5,270.8,257.6,271.1,257.6,271.4z"/>
	<path class="st5" d="M264.2,272.2c0,0.9-0.2,1.5-0.5,1.8s-0.9,0.5-1.6,0.5s-1.3-0.1-1.6-0.4c-0.3-0.3-0.5-0.9-0.5-1.7
		c0-0.9,0.2-1.5,0.5-1.8s0.9-0.5,1.7-0.5c0.8,0,1.3,0.1,1.6,0.4C264.1,270.8,264.2,271.3,264.2,272.2z"/>
	<path class="st5" d="M271.7,273.7c0,0.1,0,0.2-0.1,0.3s-0.2,0.1-0.3,0.2c-0.1,0-0.3,0.1-0.6,0.1c-0.2,0-0.5,0-0.9,0s-0.7,0-0.9,0
		c-0.2,0-0.4-0.1-0.6-0.1c-0.1,0-0.2-0.1-0.3-0.2c-0.1-0.1-0.1-0.2-0.1-0.3v-17.3c0-0.1,0-0.2,0.1-0.3c0.1-0.1,0.2-0.1,0.3-0.2
		c0.1,0,0.3-0.1,0.6-0.1c0.2,0,0.5,0,0.9,0s0.7,0,0.9,0c0.2,0,0.4,0.1,0.6,0.1c0.1,0,0.2,0.1,0.3,0.2c0.1,0.1,0.1,0.2,0.1,0.3V273.7
		z"/>
	<path class="st5" d="M279.7,272.2c0,0.9-0.2,1.5-0.5,1.8s-0.9,0.5-1.7,0.5s-1.3-0.1-1.6-0.4c-0.3-0.3-0.5-0.9-0.5-1.7
		c0-0.9,0.2-1.5,0.5-1.8s0.9-0.5,1.7-0.5c0.8,0,1.3,0.1,1.6,0.4C279.5,270.8,279.7,271.3,279.7,272.2z"/>
	<path class="st5" d="M298.7,272.8c0.1,0.3,0.2,0.6,0.2,0.8c0,0.2,0,0.3-0.1,0.4s-0.3,0.2-0.6,0.2c-0.3,0-0.6,0-1.1,0s-0.9,0-1.1,0
		c-0.3,0-0.5,0-0.6-0.1c-0.1,0-0.2-0.1-0.3-0.2s-0.1-0.2-0.1-0.3l-1.2-3.7h-6.9l-1.2,3.6c0,0.1-0.1,0.2-0.1,0.3s-0.2,0.2-0.3,0.2
		c-0.1,0.1-0.3,0.1-0.6,0.1s-0.6,0-1,0s-0.8,0-1,0s-0.4-0.1-0.5-0.2s-0.1-0.3-0.1-0.5s0.1-0.5,0.2-0.8l5.7-16.3
		c0.1-0.2,0.1-0.3,0.2-0.4c0.1-0.1,0.2-0.2,0.4-0.2c0.2-0.1,0.4-0.1,0.7-0.1c0.3,0,0.7,0,1.2,0c0.6,0,1,0,1.3,0s0.6,0,0.8,0.1
		c0.2,0.1,0.3,0.1,0.4,0.2c0.1,0.1,0.1,0.2,0.2,0.4L298.7,272.8z M290.3,259.4L290.3,259.4l-2.6,7.8h5.2L290.3,259.4z"/>
	<path class="st5" d="M305.4,272.2c0,0.9-0.2,1.5-0.5,1.8s-0.9,0.5-1.7,0.5s-1.3-0.1-1.6-0.4c-0.3-0.3-0.5-0.9-0.5-1.7
		c0-0.9,0.2-1.5,0.5-1.8s0.9-0.5,1.7-0.5c0.8,0,1.3,0.1,1.6,0.4C305.3,270.8,305.4,271.3,305.4,272.2z"/>
	<path class="st5" d="M252.1,283.4c0,0.3,0,0.5,0,0.7s-0.1,0.3-0.1,0.5c0,0.1-0.1,0.2-0.2,0.3c-0.1,0.1-0.1,0.1-0.2,0.1H247v14.8
		c0,0.1,0,0.2-0.1,0.3c-0.1,0.1-0.2,0.1-0.3,0.2c-0.1,0-0.3,0.1-0.6,0.1c-0.2,0-0.5,0-0.9,0s-0.7,0-0.9,0s-0.4-0.1-0.6-0.1
		c-0.1,0-0.2-0.1-0.3-0.2s-0.1-0.2-0.1-0.3V285h-4.6c-0.1,0-0.2,0-0.2-0.1c-0.1-0.1-0.1-0.1-0.2-0.3c0-0.1-0.1-0.3-0.1-0.5
		s0-0.4,0-0.7c0-0.3,0-0.5,0-0.7s0.1-0.4,0.1-0.5s0.1-0.2,0.2-0.3c0.1-0.1,0.1-0.1,0.2-0.1h12.9c0.1,0,0.2,0,0.2,0.1
		c0.1,0.1,0.1,0.1,0.2,0.3c0,0.1,0.1,0.3,0.1,0.5C252.1,282.9,252.1,283.1,252.1,283.4z"/>
	<path class="st5" d="M267.9,299.7c0,0.1,0,0.2-0.1,0.3c0,0.1-0.1,0.1-0.3,0.2c-0.1,0-0.3,0.1-0.6,0.1c-0.3,0-0.6,0-1.1,0
		c-0.4,0-0.7,0-0.9,0c-0.2,0-0.4-0.1-0.6-0.1c-0.1-0.1-0.2-0.1-0.3-0.2s-0.1-0.2-0.1-0.3l-1.6-4.1c-0.2-0.5-0.4-0.9-0.6-1.2
		c-0.2-0.4-0.4-0.7-0.6-0.9c-0.2-0.2-0.5-0.4-0.8-0.5s-0.7-0.2-1-0.2h-1.2v7c0,0.1,0,0.2-0.1,0.3s-0.2,0.1-0.3,0.2
		c-0.1,0-0.3,0.1-0.6,0.1c-0.2,0-0.5,0-0.9,0s-0.7,0-0.9,0s-0.4-0.1-0.6-0.1c-0.1,0-0.2-0.1-0.3-0.2s-0.1-0.2-0.1-0.3v-16.6
		c0-0.4,0.1-0.7,0.3-0.9c0.2-0.2,0.5-0.3,0.8-0.3h4.7c0.5,0,0.9,0,1.2,0s0.6,0,0.8,0.1c0.7,0.1,1.4,0.3,2,0.5c0.6,0.3,1.1,0.6,1.5,1
		s0.7,0.9,0.9,1.5c0.2,0.6,0.3,1.2,0.3,1.9c0,0.6-0.1,1.2-0.2,1.7c-0.2,0.5-0.4,1-0.7,1.4c-0.3,0.4-0.7,0.7-1.1,1s-0.9,0.5-1.5,0.7
		c0.3,0.1,0.5,0.3,0.8,0.5c0.2,0.2,0.5,0.4,0.7,0.7c0.2,0.3,0.4,0.6,0.6,0.9s0.4,0.7,0.6,1.2l1.5,3.6c0.1,0.4,0.2,0.6,0.3,0.8
		C267.8,299.5,267.9,299.6,267.9,299.7z M263.1,287.3c0-0.6-0.1-1.1-0.4-1.5s-0.7-0.7-1.3-0.9c-0.2,0-0.4-0.1-0.6-0.1s-0.6,0-1,0
		h-1.7v5.2h1.9c0.5,0,1-0.1,1.4-0.2s0.7-0.3,1-0.5s0.5-0.5,0.6-0.8C263,288.1,263.1,287.7,263.1,287.3z"/>
	<path class="st5" d="M274.3,299.7c0,0.1,0,0.2-0.1,0.3s-0.2,0.1-0.3,0.2c-0.1,0-0.3,0.1-0.6,0.1c-0.2,0-0.5,0-0.9,0s-0.7,0-0.9,0
		c-0.2,0-0.4-0.1-0.6-0.1c-0.1,0-0.2-0.1-0.3-0.2c-0.1-0.1-0.1-0.2-0.1-0.3v-17.3c0-0.1,0-0.2,0.1-0.3c0.1-0.1,0.2-0.1,0.3-0.2
		c0.1,0,0.3-0.1,0.6-0.1c0.2,0,0.5,0,0.9,0s0.7,0,0.9,0c0.2,0,0.4,0.1,0.6,0.1c0.1,0,0.2,0.1,0.3,0.2s0.1,0.2,0.1,0.3V299.7z"/>
	<path class="st5" d="M293.3,298.8c0.1,0.3,0.2,0.6,0.2,0.8c0,0.2,0,0.3-0.1,0.4s-0.3,0.2-0.6,0.2c-0.3,0-0.6,0-1.1,0s-0.9,0-1.1,0
		c-0.3,0-0.5,0-0.6-0.1c-0.1,0-0.2-0.1-0.3-0.2s-0.1-0.2-0.1-0.3l-1.2-3.7h-6.9l-1.2,3.6c0,0.1-0.1,0.2-0.1,0.3s-0.2,0.2-0.3,0.2
		c-0.1,0.1-0.3,0.1-0.6,0.1s-0.6,0-1,0s-0.8,0-1,0s-0.4-0.1-0.5-0.2s-0.1-0.3-0.1-0.5s0.1-0.5,0.2-0.8l5.7-16.3
		c0.1-0.2,0.1-0.3,0.2-0.4s0.2-0.2,0.4-0.2c0.2-0.1,0.4-0.1,0.7-0.1c0.3,0,0.7,0,1.2,0c0.6,0,1,0,1.3,0s0.6,0,0.8,0.1
		c0.2,0.1,0.3,0.1,0.4,0.2s0.1,0.2,0.2,0.4L293.3,298.8z M284.9,285.4L284.9,285.4l-2.6,7.8h5.2L284.9,285.4z"/>
	<path class="st5" d="M311.1,290.8c0,1.7-0.2,3.1-0.7,4.3c-0.4,1.2-1.1,2.2-1.9,2.9c-0.8,0.8-1.8,1.3-3,1.7
		c-1.2,0.4-2.6,0.5-4.2,0.5h-4.4c-0.3,0-0.6-0.1-0.8-0.3c-0.2-0.2-0.3-0.5-0.3-0.9v-16c0-0.4,0.1-0.7,0.3-0.9
		c0.2-0.2,0.5-0.3,0.8-0.3h4.7c1.6,0,3,0.2,4.2,0.6c1.1,0.4,2.1,0.9,2.9,1.7c0.8,0.8,1.4,1.7,1.8,2.8
		C310.9,288.1,311.1,289.3,311.1,290.8z M307.3,290.9c0-0.9-0.1-1.7-0.3-2.4s-0.5-1.4-1-1.9c-0.4-0.5-1-1-1.7-1.3s-1.6-0.5-2.8-0.5
		h-1.9v12.5h1.9c1,0,1.9-0.1,2.6-0.4s1.3-0.7,1.7-1.2c0.5-0.5,0.8-1.2,1-2S307.3,292,307.3,290.9z"/>
</g>
</svg>
